<svg width="20" height="20" viewBox="0 0 20 20" fill="none" xmlns="http://www.w3.org/2000/svg">
<mask id="mask0_1864_2388" style="mask-type:alpha" maskUnits="userSpaceOnUse" x="4" y="3" width="12" height="14">
<path fill-rule="evenodd" clip-rule="evenodd" d="M10.3102 3.69478C10.5708 3.46835 10.9655 3.49599 11.192 3.75652L12.852 5.66653C13.0784 5.92706 13.0507 6.32182 12.7902 6.54825C12.7719 6.56419 12.7529 6.57888 12.7333 6.59231L10.8091 8.00077C10.5305 8.20465 10.1394 8.14412 9.93557 7.86559C9.73169 7.58705 9.79222 7.19598 10.0708 6.9921L10.8919 6.39105C10.6119 6.34064 10.3161 6.31148 10 6.31148C7.58518 6.31148 5.625 8.27166 5.625 10.6865C5.625 13.1013 7.58518 15.0615 10 15.0615C12.4148 15.0615 14.375 13.1013 14.375 10.6865C14.375 10.2063 14.2983 9.74738 14.1571 9.31784C14.0494 8.98992 14.2278 8.63672 14.5557 8.52895C14.8837 8.42118 15.2369 8.59966 15.3446 8.92758C15.5266 9.48136 15.625 10.0719 15.625 10.6865C15.625 13.7917 13.1052 16.3115 10 16.3115C6.89482 16.3115 4.375 13.7917 4.375 10.6865C4.375 7.5813 6.89482 5.06148 10 5.06148C10.2444 5.06148 10.4789 5.0755 10.7043 5.10093L10.2485 4.5765C10.0221 4.31597 10.0497 3.92121 10.3102 3.69478Z" fill="#221533"/>
</mask>
<g mask="url(#mask0_1864_2388)">
<path d="M20 0H0V20H20V0Z" fill="#221533"/>
</g>
</svg>
