<svg width="20" height="20" viewBox="0 0 20 20" fill="none" xmlns="http://www.w3.org/2000/svg">
<path d="M14.4082 3.45008L14.3499 6.60839C14.3415 7.04172 14.6166 7.61674 14.9666 7.87507L17.0332 9.44172C18.3582 10.4417 18.1416 11.6667 16.5582 12.1667L13.8666 13.0084C13.4166 13.1501 12.9416 13.6417 12.8249 14.1001L12.1832 16.5501C11.6749 18.4834 10.4082 18.6751 9.35821 16.9751L7.89154 14.6001C7.62487 14.1667 6.99154 13.8417 6.49154 13.8667L3.70824 14.0084C1.71657 14.1084 1.1499 12.9584 2.4499 11.4417L4.09988 9.52506C4.40821 9.16672 4.54988 8.50007 4.40821 8.05007L3.56659 5.35839C3.07492 3.77506 3.95824 2.90007 5.53324 3.41674L7.99158 4.22507C8.40825 4.3584 9.03324 4.26673 9.38324 4.0084L11.9499 2.15839C13.3333 1.15839 14.4415 1.74174 14.4082 3.45008Z" fill="#5D5FEF" stroke="none" stroke-linecap="round" stroke-linejoin="round"/>
<path d="M18.2584 18.3333L15.7334 15.8083" stroke="#5D5FEF" stroke-linecap="round" stroke-linejoin="round"/>
<path d="M11.6399 9.41651C11.6399 10.6444 10.6444 11.6399 9.4165 11.6399" stroke="#fff" stroke-linecap="round"/>
</svg>
