<svg width="20" height="20" viewBox="0 0 20 20" fill="none" xmlns="http://www.w3.org/2000/svg">
<g id="TRADE LINEAR">
<g id="Group 12565">
<g id="Group 12563">
<g id="Group 12563_2">
<g id="Union">
<mask id="path-1-inside-1_2011_9645" fill="white">
<path fill-rule="evenodd" clip-rule="evenodd" d="M3.80165 11.1113L2.22217 13.6113L2.22217 14.4447H11.4461L9.99995 16.6669L13.6008 15.0002L17.7777 11.1113L13.742 11.1113L12.5925 11.1113H5.10568H3.80165Z"/>
</mask>
<path d="M2.22217 13.6113L1.37676 13.0772C1.27577 13.237 1.22217 13.4223 1.22217 13.6113L2.22217 13.6113ZM3.80165 11.1113V10.1113C3.4586 10.1113 3.13948 10.2872 2.95625 10.5772L3.80165 11.1113ZM2.22217 14.4447L1.22217 14.4447C1.22217 14.9969 1.66988 15.4447 2.22217 15.4447V14.4447ZM11.4461 14.4447L12.2843 14.9901C12.4843 14.6827 12.5 14.2904 12.3252 13.9679C12.1503 13.6455 11.8129 13.4447 11.4461 13.4447V14.4447ZM9.99995 16.6669L9.1618 16.1214C8.91865 16.4951 8.95217 16.9845 9.24399 17.3215C9.53581 17.6585 10.0154 17.7616 10.42 17.5744L9.99995 16.6669ZM13.6008 15.0002L14.0208 15.9077C14.1167 15.8634 14.2049 15.8041 14.2822 15.7321L13.6008 15.0002ZM17.7777 11.1113L18.4591 11.8432C18.7599 11.5632 18.8588 11.1276 18.7083 10.7452C18.5578 10.3628 18.1887 10.1113 17.7777 10.1113V11.1113ZM13.742 11.1113V12.1113V11.1113ZM12.5925 11.1113V10.1113V11.1113ZM3.06757 14.1455L4.64706 11.6455L2.95625 10.5772L1.37676 13.0772L3.06757 14.1455ZM3.22217 14.4447V13.6113L1.22217 13.6113L1.22217 14.4447L3.22217 14.4447ZM11.4461 13.4447H2.22217V15.4447H11.4461V13.4447ZM10.8381 17.2123L12.2843 14.9901L10.608 13.8992L9.1618 16.1214L10.8381 17.2123ZM13.1807 14.0927L9.5799 15.7594L10.42 17.5744L14.0208 15.9077L13.1807 14.0927ZM17.0963 10.3794L12.9193 14.2683L14.2822 15.7321L18.4591 11.8432L17.0963 10.3794ZM13.742 12.1113L17.7777 12.1113V10.1113L13.742 10.1113V12.1113ZM12.5925 12.1113L13.742 12.1113V10.1113L12.5925 10.1113V12.1113ZM5.10568 12.1113H12.5925V10.1113H5.10568V12.1113ZM3.80165 12.1113H5.10568V10.1113H3.80165V12.1113Z" fill="#221533" mask="url(#path-1-inside-1_2011_9645)"/>
</g>
</g>
</g>
<g id="Group 12564">
<g id="Group 12563_3">
<path id="Polygon 8" d="M17.2778 6.05566L17.2778 6.24128L15.8875 8.389L14.8232 8.389L10.0298 8.389L12.1805 6.05566L17.2778 6.05566Z" stroke="#221533" stroke-linecap="round" stroke-linejoin="round"/>
<path id="Polygon 12" d="M9.04869 4.32478L8.42319 5.83636L6.04068 8.38905L3.49302 8.38905L6.68154 5.42043L9.04869 4.32478Z" stroke="#221533" stroke-linecap="round" stroke-linejoin="round"/>
</g>
</g>
</g>
</g>
</svg>
