<svg width="16" height="14" viewBox="0 0 16 14" fill="none" xmlns="http://www.w3.org/2000/svg">
<mask id="path-1-inside-1_1820_8409" fill="white">
<path fill-rule="evenodd" clip-rule="evenodd" d="M1.80165 8.11133L0.222168 10.6113L0.222168 11.4447H9.44613L7.99995 13.6669L11.6008 12.0002L15.7777 8.11133L11.742 8.11133L10.5925 8.11133H3.10568H1.80165Z"/>
</mask>
<path d="M0.222168 10.6113L-0.623239 10.0772C-0.724228 10.237 -0.777832 10.4223 -0.777832 10.6113L0.222168 10.6113ZM1.80165 8.11133V7.11133C1.4586 7.11133 1.13948 7.28718 0.956247 7.5772L1.80165 8.11133ZM0.222168 11.4447L-0.777832 11.4447C-0.777832 11.9969 -0.330117 12.4447 0.222168 12.4447V11.4447ZM9.44613 11.4447L10.2843 11.9901C10.4843 11.6827 10.5 11.2904 10.3252 10.9679C10.1503 10.6455 9.81294 10.4447 9.44613 10.4447V11.4447ZM7.99995 13.6669L7.1618 13.1214C6.91865 13.4951 6.95217 13.9845 7.24399 14.3215C7.53581 14.6585 8.01544 14.7616 8.41999 14.5744L7.99995 13.6669ZM11.6008 12.0002L12.0208 12.9077C12.1167 12.8634 12.2049 12.8041 12.2822 12.7321L11.6008 12.0002ZM15.7777 8.11133L16.4591 8.84322C16.7599 8.56318 16.8588 8.12763 16.7083 7.7452C16.5578 7.36276 16.1887 7.11133 15.7777 7.11133V8.11133ZM11.742 8.11133V9.11133V8.11133ZM10.5925 8.11133V7.11133V8.11133ZM1.06757 11.1455L2.64706 8.64545L0.956247 7.5772L-0.623239 10.0772L1.06757 11.1455ZM1.22217 11.4447V10.6113L-0.777832 10.6113L-0.777832 11.4447L1.22217 11.4447ZM9.44613 10.4447H0.222168V12.4447H9.44613V10.4447ZM8.83809 14.2123L10.2843 11.9901L8.60798 10.8992L7.1618 13.1214L8.83809 14.2123ZM11.1807 11.0927L7.5799 12.7594L8.41999 14.5744L12.0208 12.9077L11.1807 11.0927ZM15.0963 7.37943L10.9193 11.2683L12.2822 12.7321L16.4591 8.84322L15.0963 7.37943ZM11.742 9.11133L15.7777 9.11133V7.11133L11.742 7.11133V9.11133ZM10.5925 9.11133L11.742 9.11133V7.11133L10.5925 7.11133V9.11133ZM3.10568 9.11133H10.5925V7.11133H3.10568V9.11133ZM1.80165 9.11133H3.10568V7.11133H1.80165V9.11133Z" fill="#221533" mask="url(#path-1-inside-1_1820_8409)"/>
<path d="M15.2778 3.05566L15.2778 3.24128L13.8875 5.389L12.8232 5.389L8.02981 5.389L10.1805 3.05566L15.2778 3.05566Z" stroke="#221533" stroke-linecap="round" stroke-linejoin="round"/>
<path d="M7.04869 1.32478L6.42319 2.83636L4.04068 5.38905L1.49302 5.38905L4.68154 2.42043L7.04869 1.32478Z" stroke="#221533" stroke-linecap="round" stroke-linejoin="round"/>
</svg>
