<svg width="20" height="20" viewBox="0 0 20 20" fill="none" xmlns="http://www.w3.org/2000/svg">
<path d="M13.4915 1.6665H6.51647C3.48314 1.6665 1.6748 3.47484 1.6748 6.50817V13.4832C1.6748 16.5165 3.48314 18.3248 6.51647 18.3248H13.4915C16.5248 18.3248 18.3331 16.5165 18.3331 13.4832V6.50817C18.3331 3.47484 16.5248 1.6665 13.4915 1.6665Z" fill="#221533"/>
<path d="M18.3332 8.46668H11.9415C11.9332 8.40834 11.9332 8.34168 11.9165 8.28334C11.7415 7.61668 11.1999 7.07501 10.5332 6.90001C9.33318 6.58334 8.24152 7.36668 8.05818 8.46668H1.6665V9.71668H8.25817C8.42484 10.0333 8.65817 10.3 8.95817 10.4833V12.1333C8.95817 12.7083 9.42484 13.175 9.99984 13.175C10.5748 13.175 11.0415 12.7083 11.0415 12.1333V10.4833C11.3415 10.3 11.5748 10.0333 11.7415 9.71668H18.3332V8.46668Z" fill="white"/>
</svg>
